<svg xmlns="http://www.w3.org/2000/svg" xmlns:xlink="http://www.w3.org/1999/xlink"><symbol id="close" viewBox="0 0 64 64"><path d="M35.4 32l19.9-19.9c1-1 1-2.4 0-3.4s-2.4-1-3.4 0L32 28.6 12 8.8c-.9-1-2.4-1-3.3 0s-1 2.4 0 3.4L28.6 32 8.7 51.9c-1 1-1 2.4 0 3.4.5.4 1 .7 1.7.7s1.2-.2 1.7-.7l20-19.9 20 19.8c.5.4 1.2.7 1.7.7s1.2-.2 1.7-.7c1-1 1-2.4 0-3.4L35.4 32z"/></symbol><symbol id="comments-reply" viewBox="0 0 64 64"><path d="M64 45.3V8c0-1.6-1.1-2.7-2.7-2.7H2.7C1.1 5.3 0 6.4 0 8v48c0 1.1.5 1.9 1.3 2.4.5.3.8.3 1.3.3s.8 0 1.3-.3L22.1 48h7.2l12.3 9.9c.8.5 1.6.8 2.7.8.5 0 1.1 0 1.9-.5 1.3-.8 2.4-2.1 2.4-3.7v-1.6c3.5.8 6.7 2.7 9.1 4 1.3.8 2.9.8 4.3 0 1.3-.8 2.1-2.1 2.1-3.7 0-.8 0-1.6-.3-2.4-.3-1.1-.5-2.1-1.1-3.2.5-.1 1.3-1.2 1.3-2.3zm-42.7-2.6c-.5 0-.8 0-1.3.3L5.3 51.5V10.7h53.3v32c-2.9-2.7-6.4-4.5-10.7-5.3v-2.9c0-1.6-.8-2.9-2.4-3.7-1.3-.8-3.2-.5-4.3.5l-12.7 10c-.5.3-.8.8-1.1 1.3h-6.1zm35 5.3c.8 1.1 1.1 1.9 1.6 3.2-3.5-1.9-8-3.7-12.3-4l-2.9-.3V52l-9.3-7.5 9.3-7.5v5.1l2.4.3c4 .5 7.5 2.1 10.1 4.8l.8.8h.3z"/><circle cx="16" cy="24" r="5.3"/><circle cx="32" cy="24" r="5.3"/><circle cx="48" cy="24" r="5.3"/></symbol><symbol id="instagram" viewBox="0 0 64 64"><path d="M32 16.9c-8.3 0-15 6.8-15 15.1s6.7 15.1 15 15.1S47 40.3 47 32s-6.7-15.1-15-15.1zm0 25.2c-5.5 0-10-4.5-10-10.1s4.5-10.1 10-10.1S42 26.4 42 32s-4.5 10.1-10 10.1zM47 10c-2.8 0-5 2.3-5 5s2.2 5 5 5 5-2.3 5-5-2.2-5-5-5z"/><path d="M48 0H16C7.2 0 0 7.2 0 16v31.7C0 56.7 7.3 64 16.3 64h31.5C56.7 64 64 56.7 64 47.7V16c0-8.8-7.2-16-16-16zm11 47.7C59 53.9 54 59 47.8 59H16.3C10.1 59 5 54 5 47.8V16C5 9.9 9.9 5 16 5h32c6.1 0 11 4.9 11 11v31.7z"/></symbol><symbol id="facebook" viewBox="0 0 64 64"><path d="M47.9 25.6H40V15h6.5c1.1 0 2-.9 2-2V2c0-1.1-.9-2-2-2h-7.6C30.7 0 25 5.9 25 14.4v11.2h-9c-1.5 0-2.7 1.2-2.7 2.8v7.4c0 1.5 1.2 2.7 2.7 2.7h9v22.9c0 1.5 1.2 2.7 2.7 2.7h9.8c.6 0 1.2-.3 1.6-.7.5-.5.7-1.2.7-1.8V38.4h6.8c1.3 0 2.4-.9 2.6-2.1v-.2l1.4-7.1c.2-.8 0-1.6-.6-2.4-.4-.5-1.2-.9-2.1-1z"/></symbol><symbol id="menu" viewBox="0 -53 384 384"><path d="M368 154.668H16c-8.832 0-16-7.168-16-16s7.168-16 16-16h352c8.832 0 16 7.168 16 16s-7.168 16-16 16zM368 32H16C7.168 32 0 24.832 0 16S7.168 0 16 0h352c8.832 0 16 7.168 16 16s-7.168 16-16 16zm0 245.332H16c-8.832 0-16-7.168-16-16s7.168-16 16-16h352c8.832 0 16 7.168 16 16s-7.168 16-16 16zm0 0"/></symbol><symbol id="logo" viewBox="0 0 600 600"><path d="M0 259h39.9v301h5.4c53.7 0 107.3-.1 161 .1 4.2 0 5.6-1.3 6.7-5.2 28.3-96.6 56.7-193.1 85.1-289.7.4-1.4.9-2.7 1.9-5.6 1 3.1 1.5 4.9 2.1 6.7 28.3 96.2 56.6 192.5 84.9 288.7.9 3 1.6 5 5.8 5 54.5-.2 109-.1 163.5-.1h3.3V40.2H40.1v158.7H0V0h600v600H359c-4.3-14.6-8.5-29.3-12.8-43.9-12.2-41.6-24.4-83.2-36.7-124.8-3-10.1-6-20.2-9.4-31.7-1 2.8-1.6 4.1-2 5.4-3.1 10.5-6.1 21-9.2 31.6-16 54.5-32 109-48 163.4H-.1C0 486.3 0 372.7 0 259z"/></symbol><symbol id="play" viewBox="0 0 64 64"><path d="M56.6 27.9L12.8.7C11.2-.1 9.3-.4 8 .7c-1.6.5-2.7 2.1-2.7 4v54.7c0 1.6 1.1 3.2 2.4 4 .8.3 1.6.5 2.4.5s1.9-.3 2.7-.8L56.6 36c1.3-.8 2.1-2.4 2.1-4s-.8-3.3-2.1-4.1zm-46 30.2V5.8L52.8 32 10.6 58.1z"/></symbol><symbol id="search" viewBox="0 0 64 64"><path d="M62.9 56.5l-17-13.8c7.2-9.9 6.1-23.7-2.7-32.5C38.4 5.3 32 2.7 25.3 2.7s-13 2.6-17.8 7.4S0 21.3 0 28s2.7 13.1 7.5 17.9c5.1 5.1 11.5 7.5 17.9 7.5 6.1 0 12.3-2.1 17.1-6.7l17.3 14.1c.5.5 1.1.5 1.6.5.8 0 1.6-.3 2.1-1.1.8-1 .8-2.6-.6-3.7zM25.3 48c-5.3 0-10.4-2.1-14.1-5.9-3.7-3.7-5.9-8.8-5.9-14.1s2.1-10.4 5.9-14.1S20 8 25.3 8s10.4 2.1 14.1 5.9 5.9 8.8 5.9 14.1-2.1 10.4-5.9 14.1c-3.7 3.8-8.7 5.9-14.1 5.9z"/></symbol><symbol id="twitter" viewBox="0 0 64 64"><path d="M20.1 58.1c24.2 0 37.4-20 37.4-37.4 0-.5 0-1.1-.1-1.7 2.6-1.9 4.8-4.2 6.5-6.8-2.4 1.1-4.9 1.8-7.6 2.1 2.7-1.6 4.8-4.2 5.8-7.3-2.6 1.5-5.3 2.6-8.4 3.2C51.3 7.6 47.9 6 44.1 6c-7.3 0-13.2 5.9-13.2 13.2 0 1 .1 2 .3 3-10.6-.6-20.3-5.8-26.8-13.8-1.1 2-1.8 4.2-1.8 6.6 0 4.6 2.3 8.6 5.9 10.9-2.2-.1-4.2-.7-5.9-1.6v.1c0 6.3 4.5 11.7 10.5 12.9-1.1.3-2.3.5-3.4.5-.9 0-1.7-.1-2.5-.3 1.7 5.2 6.5 9 12.3 9.1-4.5 3.5-10.2 5.6-16.3 5.6-1.2.1-2.2 0-3.2-.1 5.7 3.8 12.7 6 20.1 6"/></symbol></svg>