<svg xmlns="http://www.w3.org/2000/svg" viewBox="0 0 64 64"><path d="M64 45.3V8c0-1.6-1.1-2.7-2.7-2.7H2.7C1.1 5.3 0 6.4 0 8v48c0 1.1.5 1.9 1.3 2.4.5.3.8.3 1.3.3s.8 0 1.3-.3L22.1 48h7.2l12.3 9.9c.8.5 1.6.8 2.7.8.5 0 1.1 0 1.9-.5 1.3-.8 2.4-2.1 2.4-3.7v-1.6c3.5.8 6.7 2.7 9.1 4 1.3.8 2.9.8 4.3 0 1.3-.8 2.1-2.1 2.1-3.7 0-.8 0-1.6-.3-2.4-.3-1.1-.5-2.1-1.1-3.2.5-.1 1.3-1.2 1.3-2.3zm-42.7-2.6c-.5 0-.8 0-1.3.3L5.3 51.5V10.7h53.3v32c-2.9-2.7-6.4-4.5-10.7-5.3v-2.9c0-1.6-.8-2.9-2.4-3.7-1.3-.8-3.2-.5-4.3.5l-12.7 10c-.5.3-.8.8-1.1 1.3h-6.1zm35 5.3c.8 1.1 1.1 1.9 1.6 3.2-3.5-1.9-8-3.7-12.3-4l-2.9-.3V52l-9.3-7.5 9.3-7.5v5.1l2.4.3c4 .5 7.5 2.1 10.1 4.8l.8.8h.3z"/><circle cx="16" cy="24" r="5.3"/><circle cx="32" cy="24" r="5.3"/><circle cx="48" cy="24" r="5.3"/></svg>
