<svg xmlns="http://www.w3.org/2000/svg" viewBox="0 0 64 64"><path d="M61.1 47.1c-1.4-4.6-5.7-7.1-10.1-5.7-3 1.1-7.1 2.2-10.3 3.3 0-.8-.3-1.6-.5-2.5-1.1-2.7-4.1-4.1-6.5-4.1h-9.8c-.5 0-1.4-.3-2.2-1.1-1.1-1.1-2.7-1.6-4.4-1.6H9.6c-4.1.3-7.1 3.5-7.1 7.6v12.8c0 3.8 3.3 7.1 7.1 7.1h9.5c1.1 0 2.5-.3 3.5-1.1 2.7 1.6 6 2.2 9.3 2.2 1.9 0 4.1-.3 5.7-.8l18-5.4c5.7-2 6.6-7.1 5.5-10.7zM9.6 57.5c-.8 0-1.6-.8-1.6-1.9V42.8c0-.8.8-1.6 1.6-1.6h7.9c.3 0 .5 0 .5.3.3.3.5.3.8.5v15.5H9.6zM54 52.8l-18 5.4c-3.5 1.1-7.6.8-11.2-1.1l-.5-.5V43.8h9.5c.5 0 1.4.3 1.4.5.3.3-.3 1.1-.5 1.4-.8 1.1-1.9 2.2-2.2 3.5 0 1.4 1.1 2.5 2.5 2.5 2.5-.3 5.2-1.4 7.6-1.9 3.3-1.1 6.5-2.2 9.8-3.3 1.4-.5 3 .5 3.3 2.2.7 2-.1 3.3-1.7 4.1zM50.7 16.3c4.4 0 8.2-3.5 8.2-8.2 0-4.4-3.5-8.2-8.2-8.2s-8.2 3.5-8.2 8.2 3.9 8.2 8.2 8.2zm0-10.6c1.4 0 2.7 1.1 2.7 2.7s-1.1 2.7-2.7 2.7-2.7-1-2.7-2.7 1.4-2.7 2.7-2.7zM48.3 38.4h3.3c4.4 0 7.9-3.5 7.9-7.9v-5.7c0-4.4-3.5-7.9-7.9-7.9h-3c-4.4 0-7.9 3.5-7.9 7.9v5.4c-.1 4.7 3.5 8.2 7.6 8.2zm-2.2-13.9c0-1.4 1.1-2.5 2.5-2.5h3c1.4 0 2.5 1.1 2.5 2.5v5.7c0 1.4-1.1 2.5-2.5 2.5h-3.3c-1.1 0-2.2-1.1-2.2-2.7v-5.5z"/></svg>
