<svg xmlns="http://www.w3.org/2000/svg" viewBox="0 0 64 64"><path d="M32 0C14.4 0 0 14.4 0 32s14.4 32 32 32 32-14.4 32-32S49.6 0 32 0zm27 32.8c-6.2-.5-12.7 0-19.1 1.5-.9-2.4-1.8-4.7-2.8-6.9 6.6-2.2 12.7-5.4 18-9.3C57.6 22.2 59 26.9 59 32v.8zm-6.8-18.7c-5 3.7-10.9 6.7-17.2 8.8-3.3-6.6-7.1-12.3-11-16.6 2.5-.9 5.2-1.3 8-1.3 8 0 15.2 3.5 20.2 9.1zM19 8.3c3.9 3.9 7.7 9.4 11.1 15.9-8.2 2-16.7 2.3-24.2.9C7.8 17.9 12.6 11.9 19 8.3zM5.1 30.1c3.4.6 7 1 10.6 1 5.4 0 11-.7 16.6-2.2 1 2.2 1.9 4.4 2.8 6.7C25.8 38.4 17.6 43 11 48.9 7.2 44.3 5 38.4 5 32c0-.6 0-1.3.1-1.9zm9.4 22.4c6.1-5.4 13.7-9.6 22.2-12.2.3 1 .7 2.1 1 3.2 1.4 4.8 2.4 9.5 3.2 14-2.8 1-5.7 1.5-8.8 1.5-6.8 0-12.9-2.5-17.6-6.5zm31 2.8c-.7-4.3-1.8-8.7-3.1-13.2l-.9-3c5.7-1.2 11.4-1.7 16.8-1.3-1.6 7.5-6.3 13.8-12.8 17.5z"/></svg>
