<svg xmlns="http://www.w3.org/2000/svg" viewBox="0 0 600 600">
  <path d="M0 259h39.9v301h5.4c53.7 0 107.3-.1 161 .1 4.2 0 5.6-1.3 6.7-5.2 28.3-96.6 56.7-193.1 85.1-289.7.4-1.4.9-2.7 1.9-5.6 1 3.1 1.5 4.9 2.1 6.7 28.3 96.2 56.6 192.5 84.9 288.7.9 3 1.6 5 5.8 5 54.5-.2 109-.1 163.5-.1h3.3V40.2H40.1v158.7H0V0h600v600H359c-4.3-14.6-8.5-29.3-12.8-43.9-12.2-41.6-24.4-83.2-36.7-124.8-3-10.1-6-20.2-9.4-31.7-1 2.8-1.6 4.1-2 5.4-3.1 10.5-6.1 21-9.2 31.6-16 54.5-32 109-48 163.4H-.1C0 486.3 0 372.7 0 259z"/>
</svg>
