<svg xmlns="http://www.w3.org/2000/svg" viewBox="0 0 64 64"><path d="M48.7 0H16.2c-4.5 0-8 3.5-8 8v52.5c0 1.1.8 2.1 1.9 2.7 1.1.3 2.4 0 2.9-1.1l4.5-6.7 5.1 7.5c.5.8 1.3 1.1 2.1 1.1s1.6-.5 2.1-1.1l5.1-7.5 5.1 7.5c.5.8 1.3 1.1 2.1 1.1s1.6-.5 2.1-1.1l5.1-7.5 4.5 6.9c.5 1.1 1.9 1.3 2.9 1.1 1.1-.3 1.9-1.3 1.9-2.7V8c1.1-4.5-2.4-8-6.9-8zm2.1 51.7L49 48.8c-.5-.8-1.3-1.1-2.1-1.1s-1.6.5-2.1 1.1l-5.1 7.5-5.1-7.5c-.8-.5-1.6-1.1-2.4-1.1s-1.6.5-2.1 1.1L25 56.3l-5.1-7.5c-.5-.8-1.3-1.1-2.1-1.1s-1.6.5-2.1 1.1l-2.1 2.9V8c0-1.6 1.1-2.7 2.7-2.7h32C49.9 5.3 51 6.4 51 8v43.7z"/><path d="M42.8 18.7H21.5c-1.6 0-2.7 1.1-2.7 2.7s1.1 2.7 2.7 2.7h21.3c1.6 0 2.7-1.1 2.7-2.7 0-1.7-1.1-2.7-2.7-2.7zM42.8 29.3H21.5c-1.6 0-2.7 1.1-2.7 2.7s1.1 2.7 2.7 2.7h21.3c1.6 0 2.7-1.1 2.7-2.7s-1.1-2.7-2.7-2.7z"/></svg>
