<svg xmlns="http://www.w3.org/2000/svg" viewBox="0 0 64 64"><path d="M34.7 10.9V5.3H40c1.6 0 2.7-1.1 2.7-2.7S41.6 0 40 0H24c-1.6 0-2.7 1.1-2.7 2.7s1.1 2.7 2.7 2.7h5.3V11c-13.3 1.3-24 12.8-24 26.4C5.3 52 17.3 64 32 64s26.7-12 26.7-26.7c0-13.8-10.7-25-24-26.4zM32 58.7c-11.7 0-21.3-9.6-21.3-21.3S20.3 16 32 16s21.3 9.6 21.3 21.3S43.7 58.7 32 58.7z"/><path d="M45.3 34.7H34.7V24c0-1.6-1.1-2.7-2.7-2.7s-2.7 1.1-2.7 2.7v10.7h-2.7c-1.6 0-2.7 1.1-2.7 2.7s1.1 2.7 2.7 2.7h2.7v2.7c0 1.6 1.1 2.7 2.7 2.7s2.7-1.1 2.7-2.7V40h10.7c1.6 0 2.7-1.1 2.7-2.7-.1-1.6-1.2-2.6-2.8-2.6z"/></svg>
