<?xml version="1.0" encoding="utf-8"?>
<!-- Generator: Adobe Illustrator 22.0.1, SVG Export Plug-In . SVG Version: 6.00 Build 0)  -->
<svg version="1.1" id="Layer_1" xmlns="http://www.w3.org/2000/svg" xmlns:xlink="http://www.w3.org/1999/xlink" x="0px" y="0px"
	 viewBox="0 0 64 64" style="enable-background:new 0 0 64 64;" xml:space="preserve">
<g>
	<path d="M56.5,18.2h-3.6c0.7-1.3,1.1-2.9,1.1-4.5c0-5.2-4.3-9.5-9.5-9.5h-35C4.3,4.2,0,8.5,0,13.7v38.6c0,4.1,3.4,7.5,7.5,7.5h49
		c4.1,0,7.5-3.4,7.5-7.5V25.7C64,21.6,60.6,18.2,56.5,18.2z M59,44.6H48.5c-0.4,0-0.7-0.3-0.7-0.7v-9.8c0-0.4,0.3-0.7,0.7-0.7H59
		V44.6z M9.5,9.2h35c2.5,0,4.5,2,4.5,4.5s-2,4.5-4.5,4.5H24H9.5c-2.5,0-4.5-2-4.5-4.5S7,9.2,9.5,9.2z M56.5,54.8h-49
		c-1.4,0-2.5-1.1-2.5-2.5V22.1c1.3,0.7,2.9,1.1,4.5,1.1H24h20.5h12c1.4,0,2.5,1.1,2.5,2.5v2.7H48.5c-3.1,0-5.7,2.6-5.7,5.7v9.8
		c0,3.1,2.6,5.7,5.7,5.7H59v2.7C59,53.7,57.9,54.8,56.5,54.8z"/>
	<circle cx="54" cy="39" r="2"/>
</g>
</svg>
